<svg width="88" height="88" viewBox="0 0 88 88" fill="none" xmlns="http://www.w3.org/2000/svg">
<g filter="url(#filter0_d_248_157)">
<path d="M59.3387 52.0084L52.0538 45.3847C51.7094 45.0718 51.2569 44.9048 50.7918 44.9192C50.3267 44.9336 49.8853 45.1281 49.5609 45.4618L45.2724 49.8722C44.2402 49.6751 42.1649 49.0281 40.0287 46.8973C37.8925 44.7593 37.2455 42.6787 37.0538 41.6536L41.4606 37.3632C41.7947 37.0391 41.9895 36.5977 42.0039 36.1324C42.0183 35.6672 41.8511 35.2146 41.5376 34.8704L34.9158 27.5873C34.6022 27.242 34.1665 27.0326 33.701 27.0035C33.2355 26.9744 32.7771 27.1279 32.423 27.4313L28.5341 30.7665C28.2242 31.0774 28.0393 31.4913 28.0144 31.9296C27.9875 32.3776 27.4749 42.9905 35.7043 51.2235C42.8835 58.4009 51.8764 58.926 54.3531 58.926C54.7151 58.926 54.9373 58.9152 54.9964 58.9116C55.4346 58.8871 55.8483 58.7013 56.1577 58.3901L59.491 54.4994C59.7957 54.1465 59.9503 53.6883 59.9219 53.2229C59.8934 52.7575 59.6841 52.3216 59.3387 52.0084Z" fill="#E57214"/>
</g>
<defs>
<filter id="filter0_d_248_157" x="-0.000488281" y="0" width="87.9258" height="87.9258" filterUnits="userSpaceOnUse" color-interpolation-filters="sRGB">
<feFlood flood-opacity="0" result="BackgroundImageFix"/>
<feColorMatrix in="SourceAlpha" type="matrix" values="0 0 0 0 0 0 0 0 0 0 0 0 0 0 0 0 0 0 127 0" result="hardAlpha"/>
<feOffset dy="1"/>
<feGaussianBlur stdDeviation="14"/>
<feComposite in2="hardAlpha" operator="out"/>
<feColorMatrix type="matrix" values="0 0 0 0 0.925 0 0 0 0 0.456322 0 0 0 0 0.0732291 0 0 0 0.85 0"/>
<feBlend mode="normal" in2="BackgroundImageFix" result="effect1_dropShadow_248_157"/>
<feBlend mode="normal" in="SourceGraphic" in2="effect1_dropShadow_248_157" result="shape"/>
</filter>
</defs>
</svg>
