<svg width="157" height="157" viewBox="0 0 157 157" fill="none" xmlns="http://www.w3.org/2000/svg">
<circle cx="78.5" cy="78.5" r="77" fill="#EC7413" stroke="white" stroke-width="3"/>
<path d="M64.7914 132.784L63.8605 137.583L62.3739 137.294L64.5681 125.984L66.0547 126.272L65.0673 131.362L70.561 132.428L71.5484 127.338L73.0511 127.629L70.8569 138.94L69.3542 138.648L70.2851 133.849L64.7914 132.784Z" fill="white"/>
<path d="M52.1055 120.424L53.5762 121.126L53.3103 123.862L57.9898 126.095L59.9492 124.166L61.4198 124.868L52.5818 133.417L51.022 132.673L52.1055 120.424ZM52.5959 131.399L56.8978 127.16L53.1691 125.381L52.5959 131.399Z" fill="white"/>
<path d="M40.0701 112.056L33.3574 119.567L32.2161 118.547L39.894 109.956L49.687 118.709L42.0091 127.3L40.8678 126.28L47.5804 118.769L44.3898 115.917L37.6771 123.428L36.5481 122.419L43.2607 114.908L40.0701 112.056Z" fill="white"/>
<path d="M33.8154 99.7638L34.6149 101.069L27.288 105.556L37.7094 106.122L38.3541 107.175L28.5288 113.192L27.7294 111.887L35.0703 107.391L24.6348 106.834L23.9901 105.781L33.8154 99.7638Z" fill="white"/>
<path d="M18.6589 89.9535L17.4727 81.6768L28.8777 80.0424L29.0948 81.5576L19.1237 82.9866L19.8755 88.2328L29.8467 86.8038L30.0638 88.3191L18.6589 89.9535Z" fill="white"/>
<path d="M17.5807 74.9917L17.9806 70.8302C18.0814 69.7817 18.5209 68.9365 19.2991 68.2948C20.0772 67.653 20.9852 67.382 22.0228 67.4818C23.0604 67.5815 23.9001 68.0204 24.5418 68.7986C25.1836 69.5768 25.4541 70.4902 25.3533 71.5387L25.0998 74.1765L29.1957 74.5701L29.0493 76.0938L17.5807 74.9917ZM23.6744 74.0395L23.9279 71.4018C23.9898 70.7573 23.8272 70.2126 23.4401 69.7675C23.0322 69.3094 22.5114 69.0499 21.8779 68.9891C21.2226 68.9261 20.662 69.0817 20.1961 69.4558C19.7303 69.8299 19.4669 70.3337 19.406 70.9672L19.1525 73.605L23.6744 74.0395Z" fill="white"/>
<path d="M25.053 63.3723C23.4903 62.7894 22.3706 61.7569 21.6937 60.2748C21.0065 58.7888 20.9544 57.2645 21.5373 55.7018C22.1201 54.1391 23.1578 53.0212 24.6502 52.3482C26.1362 51.6611 27.6605 51.6089 29.2232 52.1918C30.7756 52.7708 31.8935 53.8085 32.5768 55.3047C33.2639 56.7907 33.3161 58.315 32.7332 59.8777C32.1504 61.4404 31.1127 62.5583 29.6203 63.2313C28.1176 63.9005 26.5952 63.9475 25.053 63.3723ZM28.6883 53.626C27.4957 53.1812 26.3489 53.2102 25.2479 53.713C24.1442 54.1914 23.37 55.0269 22.9252 56.2195C22.4842 57.4018 22.5203 58.5454 23.0334 59.6502C23.5503 60.7448 24.3999 61.5126 25.5822 61.9535C26.7542 62.3907 27.8991 62.3668 29.0169 61.882C30.1179 61.3792 30.8889 60.5366 31.3299 59.3543C31.7747 58.1617 31.7419 57.0252 31.2314 55.9447C30.708 54.836 29.8603 54.0631 28.6883 53.626Z" fill="white"/>
<path d="M33.3863 47.2738L36.3802 49.3686L39.4468 44.9857L40.6336 45.8161L36.6894 51.4532L27.2493 44.848L31.1463 39.2784L32.3331 40.1087L29.3136 44.4242L32.213 46.4529L34.9966 42.4746L36.1699 43.2955L33.3863 47.2738Z" fill="white"/>
<path d="M34.8285 35.219L40.9375 29.5827L41.9197 30.6472L39.4156 32.9576L46.2461 40.3609L45.1332 41.3877L38.3027 33.9844L35.8107 36.2836L34.8285 35.219Z" fill="white"/>
<path d="M55.1148 34.2342L51.4294 36.2078L45.9902 26.0511L47.3396 25.3285L49.2821 28.9559L51.6182 27.7049C52.5468 27.2076 53.4938 27.105 54.4593 27.397C55.4248 27.689 56.1535 28.2945 56.6457 29.2135C57.143 30.1421 57.2456 31.0891 56.9536 32.0546C56.666 33.0052 56.0531 33.7317 55.1148 34.2342ZM60.7735 31.2038L59.4242 31.9264L53.985 21.7697L55.3344 21.0471L60.7735 31.2038ZM49.9582 30.2182L52.1028 34.2229L54.4388 32.9719C54.9998 32.6714 55.3631 32.2341 55.5287 31.66C55.6942 31.086 55.6216 30.5087 55.3108 29.9283C55 29.3479 54.5598 28.9676 53.9902 28.7872C53.4206 28.6067 52.8552 28.6668 52.2942 28.9672L49.9582 30.2182Z" fill="white"/>
<path d="M78.8926 21.4421L78.5923 16.5629L80.1037 16.4699L80.8114 27.9696L79.3 28.0626L78.9815 22.8878L73.396 23.2315L73.7144 28.4063L72.1866 28.5004L71.479 17.0007L73.0068 16.9067L73.307 21.7858L78.8926 21.4421Z" fill="white"/>
<path d="M94.2693 30.2299L92.6698 29.9189L92.2421 27.2032L87.1528 26.2136L85.7386 28.5711L84.1391 28.2601L90.5552 17.7705L92.2516 18.1003L94.2693 30.2299ZM91.0466 19.7272L87.9431 24.9085L91.9984 25.6971L91.0466 19.7272Z" fill="white"/>
<path d="M108.016 35.3182L112.635 26.3663L113.995 27.0681L108.713 37.3072L97.04 31.2851L102.322 21.046L103.683 21.7479L99.0644 30.6997L102.867 32.6618L107.486 23.7099L108.832 24.4042L104.213 33.3561L108.016 35.3182Z" fill="white"/>
<path d="M117.15 45.6533L116.049 44.5897L122.019 38.411L111.788 40.4724L110.9 39.6147L118.906 31.3291L120.007 32.3927L114.026 38.5832L124.268 36.51L125.156 37.3677L117.15 45.6533Z" fill="white"/>
<path d="M134.281 51.3561L137.502 59.0721L126.869 63.5101L126.28 62.0975L135.575 58.2175L133.534 53.3266L124.238 57.2066L123.649 55.794L134.281 51.3561Z" fill="white"/>
<path d="M139.07 65.5716L139.725 69.7007C139.89 70.7411 139.676 71.6693 139.083 72.4855C138.491 73.3016 137.679 73.7913 136.65 73.9545C135.62 74.1178 134.698 73.9031 133.881 73.3104C133.065 72.7176 132.575 71.9011 132.41 70.8607L131.995 68.2435L127.931 68.8879L127.691 67.3761L139.07 65.5716ZM133.409 68.0192L133.824 70.6364C133.925 71.2758 134.219 71.7625 134.705 72.0965C135.215 72.4378 135.784 72.5587 136.413 72.459C137.063 72.3559 137.567 72.0649 137.924 71.5861C138.282 71.1072 138.41 70.5535 138.311 69.9249L137.896 67.3077L133.409 68.0192Z" fill="white"/>
<path d="M134.746 78.6909C136.405 78.8639 137.747 79.5832 138.774 80.8486C139.811 82.1152 140.243 83.5779 140.07 85.2368C139.897 86.8957 139.172 88.2377 137.896 89.263C136.629 90.3003 135.167 90.7325 133.508 90.5594C131.86 90.3875 130.518 89.6628 129.482 88.3853C128.444 87.1187 128.012 85.656 128.185 83.9971C128.358 82.3383 129.083 80.9962 130.359 79.971C131.646 78.9468 133.109 78.5201 134.746 78.6909ZM133.667 89.037C134.932 89.169 136.036 88.8538 136.976 88.0914C137.924 87.3519 138.465 86.3491 138.597 85.0831C138.728 83.8281 138.406 82.7299 137.633 81.7888C136.858 80.8585 135.844 80.3279 134.589 80.197C133.344 80.0672 132.242 80.377 131.281 81.1262C130.341 81.8887 129.806 82.8975 129.675 84.1525C129.543 85.4185 129.859 86.5106 130.624 87.4288C131.408 88.3712 132.422 88.9072 133.667 89.037Z" fill="white"/>
<path d="M130.708 96.3637L127.285 95.0852L125.413 100.096L124.056 99.5896L126.463 93.1445L137.257 97.1757L134.878 103.544L133.521 103.037L135.364 98.1028L132.049 96.8647L130.35 101.413L129.009 100.912L130.708 96.3637Z" fill="white"/>
<path d="M125.41 108.795L117.576 109.938L118.605 108.369L125.955 107.243L121.33 104.211L122.169 102.931L131.805 109.247L130.965 110.528L126.616 107.676L128.331 114.547L127.302 116.116L125.41 108.795Z" fill="white"/>
<path d="M123.976 119.792L117.996 125.565L116.99 124.523L119.442 122.157L112.445 114.909L113.535 113.858L120.531 121.105L122.97 118.75L123.976 119.792Z" fill="white"/>
<path d="M103.717 121.235L107.357 119.178L113.025 129.209L111.692 129.962L109.668 126.38L107.361 127.683C106.444 128.202 105.499 128.326 104.527 128.055C103.555 127.785 102.813 127.196 102.3 126.289C101.782 125.372 101.658 124.427 101.928 123.455C102.194 122.498 102.791 121.758 103.717 121.235ZM98.1286 124.392L99.4613 123.639L105.129 133.67L103.796 134.423L98.1286 124.392ZM108.964 125.133L106.729 121.178L104.422 122.481C103.868 122.795 103.514 123.24 103.362 123.818C103.209 124.395 103.295 124.971 103.619 125.544C103.943 126.117 104.391 126.487 104.965 126.655C105.538 126.822 106.102 126.75 106.656 126.437L108.964 125.133Z" fill="white"/>
<path d="M83 88L92.5 78.5M92.5 78.5L83 69M92.5 78.5H65" stroke="white" stroke-width="2"/>
</svg>
