<svg width="54" height="33" viewBox="0 0 54 33" fill="none" xmlns="http://www.w3.org/2000/svg">
<path fill-rule="evenodd" clip-rule="evenodd" d="M52.7625 2.63173C53.136 1.38048 52.7625 0.459229 50.9738 0.459229H45.0675C43.5645 0.459229 42.8715 1.25444 42.4958 2.13215C42.4958 2.13215 39.492 9.45631 35.2373 14.2138C33.8603 15.5934 33.2348 16.0311 32.4833 16.0311C32.1075 16.0311 31.5428 15.5934 31.5428 14.3399V2.63173C31.5428 1.1284 31.1288 0.459229 29.8778 0.459229H20.5898C19.6515 0.459229 19.0868 1.1559 19.0868 1.81819C19.0868 3.24131 21.2153 3.57131 21.4335 7.57715V16.2809C21.4335 18.1899 21.0893 18.5359 20.3378 18.5359C18.3353 18.5359 13.464 11.1774 10.5728 2.75777C10.0125 1.11923 9.4455 0.459229 7.93575 0.459229H2.025C0.3375 0.459229 0 1.25444 0 2.13215C0 3.69506 2.0025 11.4592 9.32625 21.7282C14.2088 28.7407 21.0825 32.5426 27.3443 32.5426C31.0995 32.5426 31.563 31.6992 31.563 30.244V24.9434C31.563 23.2544 31.9185 22.9176 33.1088 22.9176C33.9863 22.9176 35.487 23.3576 38.9925 26.7378C42.9975 30.7459 43.6568 32.5426 45.9113 32.5426H51.8175C53.505 32.5426 54.351 31.6992 53.865 30.0309C53.3295 28.3717 51.417 25.9632 48.8813 23.1055C47.5043 21.4784 45.4388 19.7253 44.811 18.8476C43.9358 17.7224 44.1855 17.2205 44.811 16.219C44.811 16.219 52.011 6.0761 52.7603 2.63173H52.7625Z" fill="#E57214"/>
</svg>
