<svg width="16" height="20" fill="none" xmlns="http://www.w3.org/2000/svg"><path d="M8 0a8.084 8.084 0 00-5.654 2.304A7.796 7.796 0 000 7.857a7.687 7.687 0 001.612 4.714s.218.283.253.323L8 20l6.137-7.11c.032-.037.251-.319.251-.319l.001-.002A7.685 7.685 0 0016 7.857a7.796 7.796 0 00-2.346-5.553A8.084 8.084 0 008 0zm0 10.714a2.947 2.947 0 01-1.616-.481A2.87 2.87 0 015.312 8.95a2.81 2.81 0 01-.165-1.65c.112-.554.39-1.064.796-1.463a2.92 2.92 0 011.49-.782 2.958 2.958 0 011.68.162c.532.217.986.583 1.306 1.053.32.47.49 1.022.49 1.587a2.835 2.835 0 01-.853 2.02A2.94 2.94 0 018 10.713z" fill="#E57214"/></svg>