<svg width="88" height="88" fill="none" xmlns="http://www.w3.org/2000/svg"><g filter="url(#filter0_d_248_157)"><path d="M59.339 52.008l-7.285-6.623a1.794 1.794 0 00-2.493.077l-4.289 4.41c-1.032-.197-3.107-.844-5.243-2.975-2.137-2.138-2.784-4.218-2.975-5.243l4.407-4.29a1.792 1.792 0 00.077-2.494l-6.622-7.283a1.792 1.792 0 00-2.493-.156l-3.889 3.335c-.31.311-.495.725-.52 1.164-.026.448-.54 11.06 7.69 19.294 7.18 7.177 16.172 7.702 18.65 7.702.361 0 .583-.01.642-.014.439-.025.852-.21 1.162-.522l3.333-3.89a1.787 1.787 0 00-.152-2.492z" fill="#E57214"/></g><defs><filter id="filter0_d_248_157" x="0" y="0" width="87.926" height="87.926" filterUnits="userSpaceOnUse" color-interpolation-filters="sRGB"><feFlood flood-opacity="0" result="BackgroundImageFix"/><feColorMatrix in="SourceAlpha" values="0 0 0 0 0 0 0 0 0 0 0 0 0 0 0 0 0 0 127 0" result="hardAlpha"/><feOffset dy="1"/><feGaussianBlur stdDeviation="14"/><feComposite in2="hardAlpha" operator="out"/><feColorMatrix values="0 0 0 0 0.925 0 0 0 0 0.456322 0 0 0 0 0.0732291 0 0 0 0.85 0"/><feBlend in2="BackgroundImageFix" result="effect1_dropShadow_248_157"/><feBlend in="SourceGraphic" in2="effect1_dropShadow_248_157" result="shape"/></filter></defs></svg>