<svg width="157" height="157" fill="none" xmlns="http://www.w3.org/2000/svg"><circle cx="78.5" cy="78.5" r="77" fill="#EC7413" stroke="#fff" stroke-width="3"/><path d="M64.791 132.784l-.93 4.799-1.487-.289 2.194-11.31 1.487.288-.988 5.09 5.494 1.066.987-5.09 1.503.291-2.194 11.311-1.503-.292.931-4.799-5.494-1.065zm-12.686-12.36l1.471.702-.266 2.736 4.68 2.233 1.96-1.929 1.47.702-8.838 8.549-1.56-.744 1.084-12.249zm.49 10.975l4.303-4.239-3.729-1.779-.573 6.018zM40.07 112.056l-6.713 7.511-1.14-1.02 7.677-8.591 9.793 8.753-7.678 8.591-1.141-1.02 6.712-7.511-3.19-2.852-6.713 7.511-1.129-1.009 6.713-7.511-3.19-2.852zm-6.255-12.292l.8 1.305-7.327 4.487 10.421.566.645 1.053-9.825 6.017-.8-1.305 7.341-4.496-10.435-.557-.645-1.053 9.825-6.017zm-15.156-9.81l-1.186-8.277 11.405-1.635.217 1.516-9.971 1.429.752 5.246 9.97-1.43.218 1.516-11.405 1.635zM17.58 74.992l.4-4.162c.101-1.048.54-1.894 1.32-2.535.777-.642 1.685-.913 2.723-.813 1.037.1 1.877.538 2.519 1.317.642.778.912 1.691.811 2.74l-.253 2.638 4.096.393-.147 1.524-11.468-1.102zm6.094-.953l.254-2.637c.062-.645-.1-1.19-.488-1.635-.408-.458-.929-.717-1.562-.778-.655-.063-1.216.093-1.682.467-.466.374-.73.878-.79 1.511l-.253 2.638 4.521.434zm1.379-10.667c-1.563-.583-2.682-1.615-3.36-3.097-.687-1.486-.739-3.01-.156-4.573.583-1.563 1.62-2.68 3.113-3.354 1.486-.687 3.01-.74 4.573-.156 1.553.579 2.67 1.617 3.354 3.113.687 1.486.74 3.01.156 4.573-.583 1.562-1.62 2.68-3.113 3.353-1.502.67-3.025.716-4.567.141zm3.635-9.746c-1.192-.445-2.34-.416-3.44.087-1.104.478-1.878 1.314-2.323 2.506-.44 1.183-.405 2.326.108 3.431.517 1.095 1.367 1.863 2.55 2.303 1.171.438 2.316.414 3.434-.071 1.1-.503 1.872-1.345 2.313-2.528.445-1.192.412-2.329-.099-3.41-.523-1.108-1.37-1.88-2.543-2.318zm4.698-6.352l2.994 2.095 3.067-4.383 1.187.83-3.945 5.637-9.44-6.605 3.897-5.57 1.187.83-3.02 4.316 2.9 2.029 2.784-3.978 1.173.82-2.784 3.979zm1.442-12.055l6.11-5.636.982 1.064-2.504 2.31 6.83 7.404-1.113 1.027-6.83-7.404-2.492 2.3-.983-1.065zm20.287-.985l-3.686 1.974L45.99 26.05l1.35-.723 1.942 3.628 2.336-1.251c.929-.497 1.876-.6 2.841-.308.966.292 1.694.898 2.187 1.817.497.928.6 1.875.308 2.84-.288.951-.9 1.678-1.84 2.18zm5.658-3.03l-1.349.722-5.439-10.156 1.35-.723 5.438 10.157zm-10.815-.986l2.145 4.005 2.336-1.251c.56-.3.924-.738 1.09-1.312.165-.574.093-1.151-.218-1.732-.311-.58-.751-.96-1.32-1.14-.57-.181-1.136-.121-1.697.18l-2.336 1.25zm28.935-8.776l-.3-4.88 1.51-.092.708 11.5-1.511.093-.319-5.175-5.585.343.318 5.175-1.527.094-.708-11.5 1.528-.093.3 4.879 5.586-.344zM94.27 30.23l-1.6-.311-.428-2.716-5.09-.99-1.413 2.358-1.6-.31 6.416-10.49 1.697.33 2.017 12.129zm-3.223-10.503l-3.104 5.181 4.055.79-.951-5.97zm16.969 15.591l4.619-8.952 1.36.702-5.282 10.24-11.673-6.023 5.282-10.239 1.361.702-4.619 8.952 3.803 1.962 4.619-8.952 1.346.694-4.619 8.952 3.803 1.962zm9.134 10.335l-1.101-1.063 5.97-6.179-10.231 2.061-.888-.857 8.006-8.286 1.101 1.064-5.981 6.19 10.242-2.073.888.858-8.006 8.285zm17.131 5.703l3.221 7.716-10.633 4.438-.589-1.413 9.295-3.88-2.041-4.89-9.296 3.88-.589-1.413 10.632-4.438zm4.789 14.216l.655 4.129c.165 1.04-.049 1.968-.642 2.785-.592.816-1.404 1.305-2.433 1.468-1.03.164-1.952-.05-2.769-.644-.816-.592-1.306-1.409-1.471-2.45l-.415-2.617-4.064.645-.24-1.512 11.379-1.804zm-5.661 2.447l.415 2.617c.101.64.395 1.127.881 1.46.51.342 1.079.463 1.708.363.65-.103 1.154-.394 1.511-.873.358-.479.486-1.032.387-1.661l-.415-2.617-4.487.711zm1.337 10.671c1.659.174 3.001.893 4.028 2.159 1.037 1.266 1.469 2.729 1.296 4.388-.173 1.659-.898 3-2.174 4.026-1.267 1.037-2.729 1.47-4.388 1.296-1.648-.171-2.99-.896-4.026-2.174-1.038-1.266-1.47-2.729-1.297-4.388.173-1.659.898-3 2.174-4.026 1.287-1.024 2.75-1.45 4.387-1.28zm-1.079 10.347c1.265.132 2.369-.183 3.309-.946.948-.74 1.489-1.742 1.621-3.008.131-1.255-.191-2.353-.964-3.294-.775-.93-1.789-1.461-3.044-1.592-1.245-.13-2.347.18-3.308.93-.94.762-1.475 1.77-1.606 3.026-.132 1.265.184 2.358.949 3.276.784.942 1.798 1.478 3.043 1.608zm-2.959 7.327l-3.423-1.279-1.872 5.011-1.357-.506 2.407-6.446 10.794 4.032-2.379 6.368-1.357-.507 1.843-4.934-3.315-1.238-1.699 4.548-1.341-.501 1.699-4.548zm-5.298 12.431l-7.834 1.143 1.029-1.569 7.35-1.126-4.625-3.032.839-1.28 9.636 6.316-.84 1.281-4.349-2.852 1.715 6.871-1.029 1.569-1.892-7.321zm-1.434 10.997l-5.98 5.773-1.006-1.042 2.452-2.366-6.997-7.248 1.09-1.051 6.996 7.247 2.439-2.355 1.006 1.042zm-20.259 1.443l3.64-2.057 5.668 10.031-1.333.753-2.024-3.582-2.307 1.303c-.917.519-1.862.643-2.834.372-.972-.27-1.714-.859-2.227-1.766-.518-.917-.642-1.862-.372-2.834.266-.957.863-1.697 1.789-2.22zm-5.588 3.157l1.332-.753 5.668 10.031-1.333.753-5.667-10.031zm10.835.741l-2.235-3.955-2.307 1.303c-.554.314-.908.759-1.06 1.337-.153.577-.067 1.153.257 1.726s.772.943 1.346 1.111c.573.167 1.137.095 1.691-.218l2.308-1.304z" fill="#fff"/><path d="M83 88l9.5-9.5m0 0L83 69m9.5 9.5H65" stroke="#fff" stroke-width="2"/></svg>