<svg width="205" height="228" fill="none" xmlns="http://www.w3.org/2000/svg"><path d="M23.053 129.579l11.962-4.499.71 1.887-5.004 1.882.526 1.398 6.416 1.876.811 2.156-7.449-2.217-4.392 7.036-.868-2.308 3.746-5.89-.526-1.398-5.222 1.964-.71-1.887zm23.113 20.483l1.258 1.434-6.335 12.161-1.4-1.597 1.722-3.305-3.251-3.709-3.49 1.289-1.413-1.611 12.909-4.662zm-3.892 7.41l2.856-5.233-5.61 2.093 2.753 3.14zm16.055 20.886l2.448-4.549a32.84 32.84 0 01-.746-.095 7.398 7.398 0 01-2.247-.8c-1.278-.689-2.076-1.486-2.392-2.392-.316-.906-.139-1.983.532-3.23l1.98-3.677 1.727.93-1.877 3.487c-.398.74-.506 1.384-.324 1.931.182.548.712 1.058 1.589 1.53a6.43 6.43 0 001.329.531c.484.138.909.21 1.274.216l2.764-5.135 1.743.938-6.057 11.253-1.743-.938zm28.071 8.459l-.266 1.762-8.667-1.31 1.91-12.636 8.507 1.285-.266 1.762-6.514-.984-.543 3.595 5.641.853-.25 1.655-5.642-.853-.583 3.862 6.674 1.009zm13.342-2.734a6.526 6.526 0 01-.035-2.323 6.554 6.554 0 01.787-2.246 5.838 5.838 0 011.64-1.828c.682-.513 1.5-.863 2.453-1.051 1.131-.222 2.159-.156 3.085.2.924.344 1.665.877 2.223 1.599l-1.35 1.348c-.335-.46-.714-.801-1.137-1.024a3.17 3.17 0 00-1.287-.389 4.52 4.52 0 00-1.253.064c-.66.129-1.21.378-1.651.746a3.913 3.913 0 00-1.049 1.289 5.05 5.05 0 00-.471 1.616 5.653 5.653 0 00.073 1.673c.118.601.332 1.164.644 1.689.309.514.683.955 1.122 1.321.448.352.944.603 1.487.753.543.15 1.109.167 1.698.051a4.15 4.15 0 001.212-.459 3.81 3.81 0 001.073-.89c.316-.38.532-.838.646-1.375l1.827.613a3.979 3.979 0 01-.906 1.83 5.878 5.878 0 01-1.642 1.35 6.37 6.37 0 01-1.93.728c-.883.174-1.725.15-2.527-.071a6.416 6.416 0 01-2.182-1.112 7.318 7.318 0 01-1.646-1.84 6.717 6.717 0 01-.904-2.262zm31.79-14.708l-3.648 2.176 5.634 9.445-1.747 1.042-5.634-9.445-3.664 2.185-.913-1.53 9.059-5.404.913 1.531zm21.898-8.491c.528.435.867.949 1.017 1.539.158.582.148 1.188-.031 1.819a4.858 4.858 0 01-.955 1.779l-3.885 4.706-9.855-8.137 4.194-5.08c.382-.463.835-.757 1.36-.884a2.956 2.956 0 011.586.002 3.499 3.499 0 011.423.707c.481.398.831.897 1.051 1.498.218.585.241 1.188.07 1.809.633-.427 1.305-.619 2.017-.576.71.026 1.379.299 2.008.818zm-1.609 1.356a2.002 2.002 0 00-.898-.439 1.791 1.791 0 00-.945.014 1.435 1.435 0 00-.795.511l-2.682 3.248 3.012 2.486 2.602-3.151c.229-.277.366-.576.413-.896a1.868 1.868 0 00-.118-.96 1.95 1.95 0 00-.589-.813zm-9.47-.093l2.901 2.395 2.36-2.859c.214-.259.345-.54.393-.843a1.853 1.853 0 00-.113-.91 1.99 1.99 0 00-.6-.799 2.067 2.067 0 00-.887-.452 1.601 1.601 0 00-.892.034 1.437 1.437 0 00-.733.492l-2.429 2.942zm13.46-21.587l.623-1.803 13.701-.523-.693 2.007-3.725.142-1.61 4.662 2.849 2.393-.7 2.025-10.445-8.903zm8.365-.291l-5.961.112 4.598 3.836 1.363-3.948zM34.02 95.93l-11.682-5.184 3.088-6.96 1.629.723-2.27 5.117 10.052 4.46-.817 1.843zm.353-28.152l1.28-1.416 12.812 4.884-1.425 1.576-3.482-1.328-3.307 3.659 1.684 3.317-1.436 1.59-6.126-12.282zm7.811 3.008l-5.529-2.231 2.729 5.329 2.8-3.098zM56.398 62.8l-6.077-11.243 4.719-2.551a3.49 3.49 0 011.564-.437 4.27 4.27 0 011.563.24 4.3 4.3 0 011.361.778c.403.342.727.74.973 1.194a4.49 4.49 0 01.54 2.02 3.913 3.913 0 01-.452 2.004c-.318.622-.815 1.116-1.491 1.48l-3.04 1.644 2.114 3.911-1.773.96zm-1.188-6.438l2.93-1.584c.337-.182.585-.432.74-.748.152-.327.21-.686.176-1.077a2.86 2.86 0 00-.36-1.197 2.598 2.598 0 00-.844-.955 2.112 2.112 0 00-1.06-.37 1.732 1.732 0 00-1.016.202l-2.834 1.533 2.268 4.196zM77.754 39.25l1.886-.287 6.834 11.887-2.1.32-1.857-3.231-4.876.742-.794 3.635-2.117.322 3.023-13.387zm4.147 7.271l-2.871-5.225-1.258 5.854 4.129-.629zm28.986-7.714l-2.802 12.47-1.984-.446 1.235-5.497-6.287-1.413-1.236 5.497-1.966-.442 2.802-12.47 1.966.443-1.172 5.216 6.288 1.413 1.172-5.216 1.984.445zm26.268 12.633l-3.55-2.334-6.04 9.191-1.7-1.117 6.04-9.19-3.565-2.344.979-1.489 8.815 5.793-.979 1.49zm3.211 14.916l10.325-7.53 1.188 1.628-8.028 5.855 12.048-.343 1.114 1.527-10.326 7.53-1.188-1.628 7.897-5.76-11.874.306-1.156-1.585zm14.837 20.722l5.871 1.86c.027-.874.304-1.618.829-2.234.525-.615 1.224-1.033 2.097-1.253.71-.18 1.386-.17 2.03.026a3.83 3.83 0 011.692 1.114c.493.53.843 1.204 1.048 2.018l1.133 4.486-12.392 3.128-.493-1.955 4.834-1.22-.405-1.606a20.55 20.55 0 01-.057-.227l-.053-.21-5.566-1.676-.568-2.251zm7.756 3.221l.586 2.321 4.171-1.053-.573-2.268a2.973 2.973 0 00-.548-1.143 1.971 1.971 0 00-.896-.683c-.353-.122-.75-.127-1.192-.015-.442.112-.797.3-1.064.566a1.971 1.971 0 00-.535.97c-.086.393-.069.828.051 1.305z" fill="#BFBFBF"/></svg>