<svg width="54" height="33" fill="none" xmlns="http://www.w3.org/2000/svg"><path fill-rule="evenodd" clip-rule="evenodd" d="M52.763 2.632c.373-1.252 0-2.173-1.79-2.173h-5.905c-1.503 0-2.197.795-2.572 1.673 0 0-3.004 7.324-7.259 12.082-1.377 1.38-2.002 1.817-2.754 1.817-.375 0-.94-.438-.94-1.691V2.632c0-1.504-.414-2.173-1.665-2.173H20.59c-.939 0-1.503.697-1.503 1.36 0 1.422 2.128 1.752 2.346 5.758v8.704c0 1.909-.344 2.255-1.095 2.255-2.003 0-6.874-7.359-9.765-15.778C10.013 1.119 9.445.459 7.936.459H2.025C.337.46 0 1.254 0 2.132c0 1.563 2.002 9.327 9.326 19.596 4.883 7.013 11.756 10.815 18.018 10.815 3.755 0 4.219-.844 4.219-2.299v-5.3c0-1.69.356-2.026 1.546-2.026.877 0 2.378.44 5.883 3.82 4.006 4.008 4.665 5.805 6.92 5.805h5.906c1.687 0 2.533-.844 2.047-2.512-.535-1.66-2.448-4.068-4.984-6.925-1.377-1.628-3.442-3.38-4.07-4.258-.875-1.126-.626-1.627 0-2.629 0 0 7.2-10.143 7.95-13.587h.002z" fill="#E57214"/></svg>