<svg width="53" height="37" fill="none" xmlns="http://www.w3.org/2000/svg"><path d="M51.743 6.295a6.135 6.135 0 00-1.687-2.796 6.715 6.715 0 00-2.945-1.634C42.976.775 26.409.775 26.409.775A168.71 168.71 0 005.735 1.81a6.958 6.958 0 00-2.946 1.673 6.377 6.377 0 00-1.713 2.81A64.05 64.05 0 000 18.389a63.934 63.934 0 001.075 12.097 6.224 6.224 0 001.706 2.794 6.816 6.816 0 002.953 1.636c4.19 1.088 20.674 1.088 20.674 1.088 6.916.078 13.829-.267 20.702-1.035a6.715 6.715 0 002.946-1.634 6.123 6.123 0 001.684-2.796c.76-3.988 1.13-8.04 1.103-12.1a58.522 58.522 0 00-1.1-12.146v.002zm-30.6 19.633V10.853l13.783 7.539-13.783 7.536z" fill="#A6A6A6"/></svg>